<?xml version="1.0" standalone="no"?><!DOCTYPE svg PUBLIC "-//W3C//DTD SVG 1.1//EN" "http://www.w3.org/Graphics/SVG/1.1/DTD/svg11.dtd"><svg xmlns:xlink="http://www.w3.org/1999/xlink" version="1.1" style="font-family:'unica one', sans-serif;font-size:12px;" xmlns="http://www.w3.org/2000/svg" width="600" height="400"><desc>Created with Highcharts 4.1.1</desc><defs><linearGradient x1="0" y1="0" x2="1" y2="1" id="highcharts-97"><stop offset="0" stop-color="#2a2a2b" stop-opacity="1"></stop><stop offset="1" stop-color="#3e3e40" stop-opacity="1"></stop></linearGradient><clipPath id="highcharts-98"><rect x="0" y="0" width="580" height="375"></rect></clipPath></defs><rect x="0" y="0" width="600" height="400" strokeWidth="0" fill="url(#highcharts-97)" class=" highcharts-background"></rect><g class="highcharts-series-group" ><g class="highcharts-series" visibility="visible"  transform="translate(10,10) scale(1 1)"><path fill="#2b908f" d="M 164.48969891796014 346.5126062286004 A 177.5 177.5 0 0 1 113.64021099812598 241.08668273295697 L 206.78798687939747 230.4775193176628 A 83.75 83.75 0 0 0 230.78035089791078 280.2207367416636 Z" stroke="#FFFFFF" stroke-width="1" stroke-linejoin="round" transform="translate(0,0)"></path><path fill="#90ee7e" d="M 113.62021249862795 240.9103129300079 A 177.5 177.5 0 0 1 113.6040502452064 201.23338900811962 L 206.77092511569597 211.67350044749307 A 83.75 83.75 0 0 0 206.77855096766248 230.39430257965162 Z" stroke="#FFFFFF" stroke-width="1" stroke-linejoin="round" transform="translate(0,0)"></path><path fill="#f45b5b" d="M 113.62390505087137 201.05700297106884 A 177.5 177.5 0 0 1 384.2549182139454 70.59301747431252 L 334.47239098827004 150.03332514633055 A 83.75 83.75 0 0 0 206.78029322822803 211.59027604972965 Z" stroke="#FFFFFF" stroke-width="1" stroke-linejoin="round" transform="translate(0,0)"></path><path fill="#7798BF" d="M 384.4052780439481 70.68734758030232 A 177.5 177.5 0 0 1 415.4358935477383 95.41303168767686 L 349.1845413218202 161.7441769230588 A 83.75 83.75 0 0 0 334.54333541510226 150.07783301324122 Z" stroke="#FFFFFF" stroke-width="1" stroke-linejoin="round" transform="translate(0,0)"></path><path fill="#aaeeee" d="M 415.56141777717795 95.53853035379754 A 177.5 177.5 0 0 1 415.68681644521024 346.3358455186226 L 349.30293451992316 280.1373355616036 A 83.75 83.75 0 0 0 349.243767542753 161.8033910824256 Z" stroke="#FFFFFF" stroke-width="1" stroke-linejoin="round" transform="translate(0,0)"></path></g><g class="highcharts-markers" visibility="visible"  transform="translate(10,10) scale(1 1)"></g></g><text x="300" text-anchor="middle" class="highcharts-title"  style="color:#e0e0e3;font-size:20px;text-transform:uppercase;fill:#e0e0e3;width:536px;" y="224">403</text><g class="highcharts-data-labels" visibility="visible"  transform="translate(10,10) scale(1 1)" opacity="1"><path fill="none" d="M 117.87027500410127 301.4854336063071 C 122.87027500410127 301.4854336063071 122.87027500410125 301.4854336063071 126.47415047571093 299.74989864983684 L 130.0780259473206 298.0143636933666" stroke="#2b908f" stroke-width="1"></path><path fill="none" d="M 99.5 221.00000000000003 C 104.5 221.00000000000003 104.5 221.00000000000003 108.5 221.00000000000003 L 112.5 221.00000000000003" stroke="#90ee7e" stroke-width="1"></path><path fill="none" d="M 204.51456639369297 53.87027500410126 C 209.51456639369297 53.87027500410126 209.51456639369292 53.87027500410126 211.25010135016316 57.474150475710935 L 212.9856363066334 61.07802594732061" stroke="#f45b5b" stroke-width="1"></path><path fill="none" d="M 410.6573582447951 75.9702600021805 C 405.6573582447951 75.9702600021805 405.65735824479515 75.97026000218051 403.1633990373602 79.09758593205262 L 400.66943982992524 82.22491186192474" stroke="#7798BF" stroke-width="1"></path><path fill="none" d="M 480.5 221.00000000000003 C 475.5 221.00000000000003 475.5 221.00000000000003 471.5 221.00000000000003 L 467.5 221.00000000000003" stroke="#aaeeee" stroke-width="1"></path><g  style="" transform="translate(42,291)"><text x="5"  style="font-size: 11px; font-weight: bold; color: rgb(176, 176, 179); fill: rgb(176, 176, 179); text-shadow: rgb(0, 0, 0) 0px 0px 6px, rgb(0, 0, 0) 0px 0px 3px;" y="16"><tspan>/wp-login.php</tspan></text></g><g  style="" transform="translate(9,211)"><text x="5"  style="font-size: 11px; font-weight: bold; color: rgb(176, 176, 179); fill: rgb(176, 176, 179); text-shadow: rgb(0, 0, 0) 0px 0px 6px, rgb(0, 0, 0) 0px 0px 3px;" y="16"><tspan>/admin/index.php</tspan></text></g><g  style="" transform="translate(78,44)"><text x="5"  style="font-size: 11px; font-weight: bold; color: rgb(176, 176, 179); fill: rgb(176, 176, 179); text-shadow: rgb(0, 0, 0) 0px 0px 6px, rgb(0, 0, 0) 0px 0px 3px;" y="16"><tspan>/administrator/index.php</tspan></text></g><g  style="" transform="translate(416,66)"><text x="5"  style="font-size: 11px; font-weight: bold; color: rgb(176, 176, 179); fill: rgb(176, 176, 179); text-shadow: rgb(0, 0, 0) 0px 0px 6px, rgb(0, 0, 0) 0px 0px 3px;" y="16"><tspan>/admin.php</tspan></text></g><g  style="" transform="translate(486,211)"><text x="5"  style="font-size: 11px; font-weight: bold; color: rgb(176, 176, 179); fill: rgb(176, 176, 179); text-shadow: rgb(0, 0, 0) 0px 0px 6px, rgb(0, 0, 0) 0px 0px 3px;" y="16"><tspan>/wso2.php</tspan></text></g></g><g class="highcharts-legend" ><g ><g></g></g></g><g class="highcharts-tooltip"  style="cursor:default;padding:0;white-space:nowrap;" transform="translate(0,-9999)"><path fill="none" d="M 3 0 L 13 0 C 16 0 16 0 16 3 L 16 13 C 16 16 16 16 13 16 L 3 16 C 0 16 0 16 0 13 L 0 3 C 0 0 0 0 3 0"  stroke="black" stroke-opacity="0.049999999999999996" stroke-width="5" transform="translate(1, 1)"></path><path fill="none" d="M 3 0 L 13 0 C 16 0 16 0 16 3 L 16 13 C 16 16 16 16 13 16 L 3 16 C 0 16 0 16 0 13 L 0 3 C 0 0 0 0 3 0"  stroke="black" stroke-opacity="0.09999999999999999" stroke-width="3" transform="translate(1, 1)"></path><path fill="none" d="M 3 0 L 13 0 C 16 0 16 0 16 3 L 16 13 C 16 16 16 16 13 16 L 3 16 C 0 16 0 16 0 13 L 0 3 C 0 0 0 0 3 0"  stroke="black" stroke-opacity="0.15" stroke-width="1" transform="translate(1, 1)"></path><path fill="rgb(0, 0, 0)" fill-opacity=" 0.85" d="M 3 0 L 13 0 C 16 0 16 0 16 3 L 16 13 C 16 16 16 16 13 16 L 3 16 C 0 16 0 16 0 13 L 0 3 C 0 0 0 0 3 0"></path><text x="8"  style="font-size:12px;color:#f0f0f0;fill:#f0f0f0;" y="20"></text></g><text x="590" text-anchor="end"  style="cursor:pointer;color:#666;font-size:9px;fill:#666;" y="395">Highcharts.com</text></svg>